<?xml version="1.0" ?>
<!-- Uploaded to: SVG Repo, www.svgrepo.com, Generator: SVG Repo Mixer Tools -->
<svg width="800px" height="800px" viewBox="0 0 64 64" xmlns="http://www.w3.org/2000/svg">
<defs>
<style>.cls-1{fill:#f6f9f9;}.cls-2{fill:#d57080;}.cls-3{fill:#e7aa90;}.cls-4{fill:#e29375;}.cls-5{fill:#cb5769;}.cls-6{fill:#e7ecf1;}</style>
</defs>
<g data-name="Winter Avatar" id="Winter_Avatar-12">
<path class="cls-1" d="M42.46,20C42.46,13.45,38.89,8,30.61,8,24.1,8,17.92,12.69,17.19,19.15a13.71,13.71,0,0,0,1.75,7.79l6.65,2.52Z" id="path16125-2-6"/>
<path class="cls-2" d="M21.53,31.11a2.88,2.88,0,0,1-.59.07,2.54,2.54,0,1,1,0-5.07,2.57,2.57,0,0,1,.55.06S24.21,26,24,26s.15,1.58.11,1.75S21.53,31.11,21.53,31.11Z" id="path8639-2"/>
<path class="cls-3" d="M31.81,19.82c-3.91,0-7.48,2.63-8.87,3.07a10.68,10.68,0,0,0,1.48,13.23l-8.11-2.18-2.7,2.82.61,5,8,2.15v9.46A2.66,2.66,0,0,0,24.92,56H39.17a2.66,2.66,0,0,0,2.67-2.67V43.87l8-2.15.45-4.49-2.53-3.29-8.14,2.18a10.62,10.62,0,0,0,1.62-13C41,23,36.65,19.82,31.81,19.82Z" id="path225221-7"/>
<path class="cls-4" d="M31.81,19.82a9.29,9.29,0,0,0-1.5.13,28.5,28.5,0,0,1,7.44,2.18,14.71,14.71,0,0,1,1.84,6.45,10.73,10.73,0,0,1-3.15,7.54h3.2a11.13,11.13,0,0,0,1-1.11,10.57,10.57,0,0,0,.67-11.93C41,23,36.65,19.82,31.81,19.82ZM50,40.79a3.38,3.38,0,0,1-.56.2L38.64,43.87v9.46A2.66,2.66,0,0,1,36,56h3.19a2.66,2.66,0,0,0,2.67-2.67V43.87l8-2.15Z" id="path13427"/>
<path class="cls-1" d="M14.22,41.72l2.08-7.78-2.73-.73A4,4,0,0,0,11.49,41Z" id="path41243-4-8"/>
<path class="cls-1" d="M47.78,33.94l2.08,7.78L52.6,41a4,4,0,1,0-2.09-7.78Z" id="path225223-6"/>
<path class="cls-5" d="M33.76,41.82l3.73,1.68a.89.89,0,0,0,1.25-.81v-3.8a.88.88,0,0,0-.92-.88.78.78,0,0,0-.33.07l-3.73,1.68H30.32L26.6,38.08a.83.83,0,0,0-.34-.07.88.88,0,0,0-.91.88v3.8a.89.89,0,0,0,1.25.81l3.72-1.68Z" id="path9745-2-31-8"/>
<path class="cls-2" d="M32,38.4a1.71,1.71,0,0,1,1.72,1.72v1.7a1.72,1.72,0,0,1-3.44,0v-1.7A1.72,1.72,0,0,1,32,38.4Z" id="rect4471-6-1-8"/>
<path class="cls-6" d="M42.46,20C42.46,13.45,38.89,8,30.6,8a13.22,13.22,0,0,0-1.66.11c6.93.77,10,5.86,10,11.84Z" id="path14786"/>
<path class="cls-2" d="M31.81,18.12A34.28,34.28,0,0,0,21.16,20a1.68,1.68,0,1,0,1.15,3.15,31.45,31.45,0,0,1,9.5-1.63,31.45,31.45,0,0,1,9.5,1.63A1.68,1.68,0,0,0,42.46,20,34.28,34.28,0,0,0,31.81,18.12Z" id="path31499-2-6-5"/>
<path class="cls-6" d="M51.52,33.07a4,4,0,0,0-1,.14l-.61.17a4,4,0,0,1-.25,7.53l.21.81L52.6,41a4,4,0,0,0-1.08-7.92Z" id="path13429"/>
<path class="cls-5" d="M40.61,19.37a2.14,2.14,0,0,1-1,3.2c1.09.29,1.75.53,1.75.53A1.68,1.68,0,0,0,42.46,20S41.77,19.69,40.61,19.37Z" id="path19104"/>
<path d="M32,45.35a1.26,1.26,0,1,0,0,2.51h0a1.25,1.25,0,0,0,1.25-1.25h0A1.26,1.26,0,0,0,32,45.35Z"/>
<path d="M27.77,33.53A1,1,0,0,0,28,34.92,7.27,7.27,0,0,0,32,36a7.35,7.35,0,0,0,3.94-1.11,1,1,0,0,0-1.15-1.63,5.62,5.62,0,0,1-5.59,0A1,1,0,0,0,27.77,33.53Z"/>
<path d="M37.7,37a1.79,1.79,0,0,0-.71.16l-2.89,1.3a2.7,2.7,0,0,0-4.29,0l-2.89-1.3a1.75,1.75,0,0,0-.71-.16,1.9,1.9,0,0,0-1.37.53,1.84,1.84,0,0,0-.58,1.35v3.8a1.87,1.87,0,0,0,.86,1.58,1.94,1.94,0,0,0,1,.31,1.91,1.91,0,0,0,.77-.17l2.7-1.22a2.69,2.69,0,0,0,4.67,0L37,44.41a1.85,1.85,0,0,0,1.8-.14,1.87,1.87,0,0,0,.86-1.58v-3.8a1.84,1.84,0,0,0-.57-1.35A1.91,1.91,0,0,0,37.7,37Zm-11.44,5.5,0-3.46,3,1.36v.76Zm5.7,0a.71.71,0,0,1-.72-.72v-1.7a.72.72,0,0,1,1.44,0v1.7A.72.72,0,0,1,32,42.54Zm5.69,0-3-1.34v-.76l3-1.34Z"/>
<path d="M50.17,32.24l-8,2.15A11.6,11.6,0,0,0,42.77,24a2.65,2.65,0,0,0,.67-4.67C43.19,11.72,38.33,7,30.61,7,23.29,7,17,12.29,16.2,19A14.2,14.2,0,0,0,17.83,27a3.59,3.59,0,0,0-.43,1.66,3.5,3.5,0,0,0,1,2.5,3.45,3.45,0,0,0,2.37,1,11.63,11.63,0,0,0,1,2.23l-8-2.15A5,5,0,0,0,7.59,35.8,5,5,0,0,0,11.14,42l10,2.68v8.69A3.68,3.68,0,0,0,24.83,57H39.08a3.67,3.67,0,0,0,3.67-3.67V44.64l10-2.68a5,5,0,0,0-2.6-9.72ZM22,22.16a.69.69,0,0,1-.87-.41.66.66,0,0,1,.41-.86,33.21,33.21,0,0,1,10.3-1.77,33.45,33.45,0,0,1,10.3,1.77.68.68,0,0,1,.41.86.69.69,0,0,1-.87.41,32.12,32.12,0,0,0-9.84-1.69A32.12,32.12,0,0,0,22,22.16Zm-3.78-2.89C18.83,13.51,24.29,9,30.61,9s10.2,3.56,10.74,9.54a35.23,35.23,0,0,0-9.54-1.42,35.13,35.13,0,0,0-9.56,1.43,13.18,13.18,0,0,1,.4-2.41,1,1,0,0,0-.7-1.23,1,1,0,0,0-1.23.7,15.92,15.92,0,0,0-.52,3.74,2.64,2.64,0,0,0,.92,4.75c-.14.34-.26.68-.37,1a3.36,3.36,0,0,0-1.41.38A12.08,12.08,0,0,1,18.19,19.27Zm1.66,10.46a1.5,1.5,0,0,1,.45-2.45c0,.44-.09.87-.09,1.31a13.93,13.93,0,0,0,.1,1.44A1.59,1.59,0,0,1,19.85,29.73ZM9.52,36.31a3,3,0,0,1,3.71-2.14l1.77.48L13.43,40.5,11.66,40A3,3,0,0,1,9.52,36.31Zm32,6.6a1,1,0,0,0-.74,1v9.46A1.67,1.67,0,0,1,39.08,55H24.83a1.67,1.67,0,0,1-1.67-1.67V43.87a1,1,0,0,0-.74-1L15.36,41l1.57-5.85,7.15,1.91a1,1,0,0,0,1.19-.58,1,1,0,0,0-.22-1.09,9.61,9.61,0,0,1-1.54-11.65,30.52,30.52,0,0,1,8.3-1.29,30.66,30.66,0,0,1,8.65,1.4,9.61,9.61,0,0,1-1.6,11.54,1,1,0,0,0-.15,1.21,1,1,0,0,0,1.12.46L47,35.17,48.55,41ZM52.26,40l-1.77.48-1.57-5.85,1.77-.48A3,3,0,1,1,52.26,40Z"/>
<path d="M32,50.9a1.26,1.26,0,1,0,0,2.51h0a1.25,1.25,0,0,0,1.25-1.26h0A1.25,1.25,0,0,0,32,50.9Z"/>
<path d="M28.11,29.9a1,1,0,0,0,1-1v-.38a1,1,0,1,0-2,0v.38A1,1,0,0,0,28.11,29.9Z"/>
<path d="M35.8,29.9a1,1,0,0,0,1-1v-.38a1,1,0,1,0-2,0v.38A1,1,0,0,0,35.8,29.9Z"/>
</g>
</svg>