<?xml version="1.0" encoding="utf-8"?><!-- Uploaded to: SVG Repo, www.svgrepo.com, Generator: SVG Repo Mixer Tools -->
<svg fill="#000000" width="800px" height="800px" viewBox="0 0 24 24" id="rotate-right" data-name="Flat Color" xmlns="http://www.w3.org/2000/svg" class="icon flat-color"><path id="primary" d="M21.37,5.07a1,1,0,0,0-1.3.56l-1,2.45A9,9,0,1,0,17.75,18a1,1,0,0,0-.09-1.41,1,1,0,0,0-1.41.09,7,7,0,1,1,1.2-7.33L14.37,8.07a1,1,0,1,0-.74,1.86l5,2A1,1,0,0,0,19,12a1,1,0,0,0,.93-.63l2-5A1,1,0,0,0,21.37,5.07Z" style="fill: rgb(0, 0, 0);"></path></svg>