<?xml version="1.0" encoding="utf-8"?>

<!-- Uploaded to: SVG Repo, www.svgrepo.com, Generator: SVG Repo Mixer Tools -->
<svg width="800px" height="800px" viewBox="0 0 32 32" xmlns="http://www.w3.org/2000/svg">

<g fill="none" fill-rule="evenodd">

<path d="m23.5682772 3c4.9276488 0 8.4317228 4.838923 8.4317228 8.6785264l-.0026646.7231849c-.0224837 2.1029193-.2338384 3.6703575-2.2125674 6.4367237-1.8252426 2.5517843-6.302687 6.0112813-7.770696 7.1126218l-.5405544.3980353c-.2853913.1997542-1.4463788 1.0118086-2.4735176 1.7222063l-.6058855.4090084c-1.110776.7352052-2.3941145 1.519553-2.3941145 1.519553l-.0173606-.0053092c-.1004521-.0484889-.5911702-.4308281-2.1254887-1.3928162l-.8571507-.530436c-2.3754169-1.4525401-4.5778186-3.1359839-7.87293624-5.9509354-3.29511765-2.8149515-5.12706376-6.6022333-5.12706376-10.4418366 0-3.8396034 3.504074-8.6785264 8.43172279-8.6785264 4.22861021 0 6.77305081 2.13597756 7.40986361 2.7419991l.1584136.15855429.1532783-.15366107c.6281695-.59932196 3.174929-2.74689232 7.4149989-2.74689232z" fill="#d2143a" fill-rule="nonzero"/>

</g>

</svg>